<svg xmlns="http://www.w3.org/2000/svg" viewBox="0 0 512.39 352.64"><defs><style>.cls-1{fill:#fff;stroke:#fff;stroke-miterlimit:10;}</style></defs><g id="Capa_2" data-name="Capa 2"><g id="Capa_1-2" data-name="Capa 1"><path class="cls-1" d="M9.89,1.67c-6.7,2.9-10.5,10.6-9.1,18.1.9,4.7,5.9,10.2,10.4,11.5,2.6.8,78.5,1,247.4.8l243.7-.3,2.7-2.1c5.3-3.9,6.9-7.1,6.9-13.4s-1.6-9.5-6.9-13.4l-2.7-2.1L257.59.57C55.69.37,12.39.57,9.89,1.67Z"/><path class="cls-1" d="M9.89,161.67c-6.7,2.9-10.5,10.6-9.1,18.1.9,4.7,5.9,10.2,10.4,11.5,2.6.8,78.5,1,247.4.8l243.7-.3,2.7-2.1c5.3-3.9,6.9-7.1,6.9-13.4s-1.6-9.5-6.9-13.4l-2.7-2.1-244.7-.2C55.69,160.37,12.39,160.57,9.89,161.67Z"/><path class="cls-1" d="M9.89,321.67c-6.7,2.9-10.5,10.6-9.1,18.1.9,4.7,5.9,10.2,10.4,11.5,2.6.8,78.5,1,247.4.8l243.7-.3,2.7-2.1c5.3-3.9,6.9-7.1,6.9-13.4s-1.6-9.5-6.9-13.4l-2.7-2.1-244.7-.2C55.69,320.37,12.39,320.57,9.89,321.67Z"/></g></g></svg>